<?xml version="1.0" standalone="no"?><svg xmlns="http://www.w3.org/2000/svg" viewBox="0 0 1440 320"><path fill="#487eb0" fill-opacity="1" d="M0,320L24,298.7C48,277,96,235,144,186.7C192,139,240,85,288,85.3C336,85,384,139,432,144C480,149,528,107,576,90.7C624,75,672,85,720,96C768,107,816,117,864,122.7C912,128,960,128,1008,154.7C1056,181,1104,235,1152,218.7C1200,203,1248,117,1296,85.3C1344,53,1392,75,1416,85.3L1440,96L1440,0L1416,0C1392,0,1344,0,1296,0C1248,0,1200,0,1152,0C1104,0,1056,0,1008,0C960,0,912,0,864,0C816,0,768,0,720,0C672,0,624,0,576,0C528,0,480,0,432,0C384,0,336,0,288,0C240,0,192,0,144,0C96,0,48,0,24,0L0,0Z"></path></svg>